<svg width="482" height="87" viewBox="0 0 482 87" fill="none" xmlns="http://www.w3.org/2000/svg">
<path d="M17.5361 40.6064C17.5361 69.1496 40.0979 71.3883 51.3787 68.9397L47.4435 65.0045C25.1966 65.6342 21.5588 49.0015 22.5207 40.6064H17.5361Z" fill="#E6EDFE"/>
<path d="M28.817 43.2299L68.6935 78.9088L75.2522 72.875L47.4435 48.4768C57.3077 51.2052 57.8499 41.3935 56.888 36.1465C56.4682 29.6403 52.1658 28.1887 50.067 28.2762H28.817C31.2656 25.8277 38.104 21.1929 45.8695 22.2423C55.5763 23.554 58.9867 26.1775 63.709 36.1465C67.4867 44.1218 63.709 52.5869 61.3479 55.8225L65.5454 58.9706C72.8911 49.946 70.7048 38.0705 68.6935 33.2608C62.817 20.2485 51.0289 16.8204 45.8695 16.733C26.7707 16.5231 19.7223 29.5879 18.5855 36.1465H45.8695C50.4867 39.5046 47.7933 42.2679 45.8695 43.2299H28.817Z" fill="#E6EDFE"/>
<path d="M73.4076 33.0059C78.4447 46.0183 72.708 57.8413 69.2101 62.1263L72.6204 65.537L73.4074 63.963L80.2284 65.537L84.4259 56.8796L78.9167 52.6821C79.5463 52.2623 79.7037 49.1842 79.7037 47.6975L85.7377 45.5988L86 36.1543L78.6543 35.6296C79.0741 33.7407 78.3045 31.3447 77.8673 30.3827L82.0648 26.1849L77.8673 18.0525L71.0463 19.6265C70.4167 18.3673 68.3354 16.6533 67.3735 15.9537L69.2099 9.65741L61.3395 4.67284L56.8796 9.65741C54.3611 8.18827 51.6327 7.82099 50.5833 7.82099L49.7963 1H40.8765L39.3025 7.55864C37.6235 7.55864 34.5802 8.25823 33.2685 8.60802L29.071 3.62346L20.9383 7.55864L22.25 14.3796C21.2006 14.7994 18.8397 17.0031 17.7903 18.0525L11.7562 15.429L6.50926 22.7747L10.9691 27.7593C9.91975 29.0187 9.13272 31.782 8.87037 33.0062H2.04938L1 42.4506L7.55864 45.0741L7.82099 50.321L2.04938 53.4691L5.19753 62.3889L12.5432 62.1263C12.5432 63.1755 14.1173 65.0122 14.9043 65.7994L11.2315 71.3086L18.5772 78.1296L23.8241 74.4568C25.0833 75.2963 26.9722 76.0309 27.7593 76.2932V83.3765L36.679 86L40.0895 79.7037C41.9784 80.1235 43.8498 79.8786 44.5494 79.7037L47.4352 86L57.142 84.4259V77.3426L59.2407 76.2932L55.3056 72.8827C52.1574 74.7191 31.6947 79.4414 18.315 62.1263C7.61134 48.2743 13.5054 32.3937 17.7903 26.1849C28.0743 10.2343 45.5115 11.1438 52.9447 13.5923C57.6669 14.6417 68.3706 19.9936 73.4076 33.0059Z" fill="#1F3C88" stroke="#0244F2"/>
<path d="M167.798 58V29.88H177.83C179.983 29.88 181.769 30.3233 183.188 31.21C184.632 32.0967 185.708 33.2493 186.418 34.668C187.152 36.0613 187.52 37.518 187.52 39.038C187.52 40.5833 187.152 42.0653 186.418 43.484C185.708 44.8773 184.632 46.03 183.188 46.942C181.769 47.8287 179.983 48.272 177.83 48.272H171.522V58H167.798ZM177.83 33.148H171.522V45.004H177.83C179.172 45.004 180.287 44.7127 181.174 44.13C182.06 43.5473 182.719 42.8127 183.15 41.926C183.606 41.014 183.834 40.064 183.834 39.076C183.834 38.088 183.606 37.138 183.15 36.226C182.719 35.314 182.06 34.5793 181.174 34.022C180.287 33.4393 179.172 33.148 177.83 33.148ZM192.253 58V29.88H202.209C204.21 29.88 205.87 30.2727 207.187 31.058C208.504 31.8433 209.492 32.8567 210.151 34.098C210.81 35.3393 211.139 36.644 211.139 38.012C211.139 39.152 210.911 40.254 210.455 41.318C209.999 42.382 209.315 43.3193 208.403 44.13C207.516 44.9153 206.389 45.4853 205.021 45.84L212.127 58H207.909L201.107 46.182H195.977V58H192.253ZM202.171 33.148H195.977V42.99H202.171C203.336 42.99 204.299 42.7493 205.059 42.268C205.819 41.7867 206.389 41.1787 206.769 40.444C207.149 39.684 207.339 38.8987 207.339 38.088C207.339 37.252 207.149 36.4667 206.769 35.732C206.389 34.972 205.819 34.3513 205.059 33.87C204.299 33.3887 203.336 33.148 202.171 33.148ZM229.548 58.38C227.318 58.38 225.355 57.9747 223.658 57.164C221.96 56.328 220.542 55.226 219.402 53.858C218.262 52.4647 217.4 50.9067 216.818 49.184C216.235 47.4613 215.944 45.7007 215.944 43.902C215.944 42.1033 216.235 40.3553 216.818 38.658C217.4 36.9353 218.262 35.39 219.402 34.022C220.542 32.654 221.96 31.5647 223.658 30.754C225.355 29.918 227.318 29.5 229.548 29.5C231.777 29.5 233.74 29.918 235.438 30.754C237.135 31.5647 238.554 32.654 239.694 34.022C240.834 35.39 241.695 36.9353 242.278 38.658C242.86 40.3553 243.152 42.1033 243.152 43.902C243.152 45.7007 242.86 47.4613 242.278 49.184C241.695 50.9067 240.834 52.4647 239.694 53.858C238.554 55.226 237.135 56.328 235.438 57.164C233.74 57.9747 231.777 58.38 229.548 58.38ZM229.548 54.922C231.144 54.922 232.55 54.618 233.766 54.01C234.982 53.402 235.995 52.5787 236.806 51.54C237.642 50.5013 238.275 49.3233 238.706 48.006C239.136 46.6887 239.352 45.3207 239.352 43.902C239.352 42.5087 239.136 41.166 238.706 39.874C238.275 38.5567 237.642 37.3787 236.806 36.34C235.995 35.3013 234.982 34.478 233.766 33.87C232.55 33.262 231.144 32.958 229.548 32.958C227.952 32.958 226.546 33.262 225.33 33.87C224.114 34.478 223.088 35.3013 222.252 36.34C221.441 37.3787 220.82 38.5567 220.39 39.874C219.959 41.166 219.744 42.5087 219.744 43.902C219.744 45.3207 219.959 46.6887 220.39 48.006C220.82 49.3233 221.441 50.5013 222.252 51.54C223.088 52.5787 224.114 53.402 225.33 54.01C226.546 54.618 227.952 54.922 229.548 54.922ZM248.288 58V29.88H257.408C259.663 29.88 261.626 30.2853 263.298 31.096C264.97 31.8813 266.363 32.9453 267.478 34.288C268.593 35.6307 269.429 37.138 269.986 38.81C270.543 40.482 270.822 42.192 270.822 43.94C270.822 45.688 270.543 47.398 269.986 49.07C269.429 50.742 268.593 52.2493 267.478 53.592C266.363 54.9347 264.97 56.0113 263.298 56.822C261.626 57.6073 259.663 58 257.408 58H248.288ZM257.256 33.148H252.012V54.732H257.256C258.903 54.732 260.334 54.428 261.55 53.82C262.791 53.212 263.817 52.4013 264.628 51.388C265.464 50.3493 266.085 49.184 266.49 47.892C266.895 46.6 267.098 45.2827 267.098 43.94C267.098 42.5973 266.895 41.28 266.49 39.988C266.085 38.696 265.464 37.5433 264.628 36.53C263.817 35.4913 262.791 34.668 261.55 34.06C260.334 33.452 258.903 33.148 257.256 33.148ZM286.651 58.38C284.447 58.38 282.547 57.962 280.951 57.126C279.355 56.2647 278.113 55.0613 277.227 53.516C276.365 51.9453 275.935 50.096 275.935 47.968V29.88H279.659V47.968C279.659 49.9187 280.229 51.5527 281.369 52.87C282.534 54.1873 284.295 54.846 286.651 54.846C289.032 54.846 290.793 54.1873 291.933 52.87C293.098 51.5527 293.681 49.9187 293.681 47.968V29.88H297.405V47.968C297.405 50.096 296.961 51.9453 296.075 53.516C295.213 55.0613 293.985 56.2647 292.389 57.126C290.793 57.962 288.88 58.38 286.651 58.38ZM315.82 58.38C313.616 58.38 311.678 57.9747 310.006 57.164C308.334 56.328 306.94 55.226 305.826 53.858C304.736 52.4647 303.913 50.9193 303.356 49.222C302.798 47.4993 302.52 45.7387 302.52 43.94C302.52 42.1413 302.798 40.3807 303.356 38.658C303.913 36.9353 304.736 35.39 305.826 34.022C306.94 32.6287 308.334 31.5267 310.006 30.716C311.678 29.9053 313.616 29.5 315.82 29.5C317.644 29.5 319.202 29.7407 320.494 30.222C321.811 30.678 322.9 31.2733 323.762 32.008C324.648 32.7427 325.358 33.528 325.89 34.364C326.447 35.2 326.852 35.9853 327.106 36.72C327.384 37.4547 327.562 38.0627 327.638 38.544C327.739 39 327.79 39.228 327.79 39.228H324.066C324.066 39.228 324.015 39.0253 323.914 38.62C323.812 38.1893 323.61 37.67 323.306 37.062C323.002 36.4287 322.546 35.7953 321.938 35.162C321.33 34.5287 320.532 34.0093 319.544 33.604C318.556 33.1733 317.327 32.958 315.858 32.958C314.262 32.958 312.868 33.2747 311.678 33.908C310.487 34.516 309.486 35.352 308.676 36.416C307.89 37.4547 307.295 38.6327 306.89 39.95C306.51 41.242 306.32 42.572 306.32 43.94C306.32 45.308 306.51 46.6507 306.89 47.968C307.295 49.26 307.89 50.438 308.676 51.502C309.486 52.5407 310.487 53.3767 311.678 54.01C312.868 54.618 314.262 54.922 315.858 54.922C317.327 54.922 318.556 54.7067 319.544 54.276C320.532 53.8453 321.33 53.326 321.938 52.718C322.546 52.0847 323.002 51.464 323.306 50.856C323.61 50.2227 323.812 49.6907 323.914 49.26C324.015 48.8293 324.066 48.614 324.066 48.614H327.79C327.79 48.614 327.739 48.8547 327.638 49.336C327.562 49.792 327.384 50.4 327.106 51.16C326.852 51.8947 326.447 52.68 325.89 53.516C325.358 54.3267 324.648 55.112 323.762 55.872C322.9 56.6067 321.811 57.2147 320.494 57.696C319.202 58.152 317.644 58.38 315.82 58.38ZM337.711 58V33.148H328.933V29.88H350.213V33.148H341.435V58H337.711ZM354.978 58V29.88H358.702V58H354.978ZM377.428 58.38C375.199 58.38 373.236 57.9747 371.538 57.164C369.841 56.328 368.422 55.226 367.282 53.858C366.142 52.4647 365.281 50.9067 364.698 49.184C364.116 47.4613 363.824 45.7007 363.824 43.902C363.824 42.1033 364.116 40.3553 364.698 38.658C365.281 36.9353 366.142 35.39 367.282 34.022C368.422 32.654 369.841 31.5647 371.538 30.754C373.236 29.918 375.199 29.5 377.428 29.5C379.658 29.5 381.621 29.918 383.318 30.754C385.016 31.5647 386.434 32.654 387.574 34.022C388.714 35.39 389.576 36.9353 390.158 38.658C390.741 40.3553 391.032 42.1033 391.032 43.902C391.032 45.7007 390.741 47.4613 390.158 49.184C389.576 50.9067 388.714 52.4647 387.574 53.858C386.434 55.226 385.016 56.328 383.318 57.164C381.621 57.9747 379.658 58.38 377.428 58.38ZM377.428 54.922C379.024 54.922 380.43 54.618 381.646 54.01C382.862 53.402 383.876 52.5787 384.686 51.54C385.522 50.5013 386.156 49.3233 386.586 48.006C387.017 46.6887 387.232 45.3207 387.232 43.902C387.232 42.5087 387.017 41.166 386.586 39.874C386.156 38.5567 385.522 37.3787 384.686 36.34C383.876 35.3013 382.862 34.478 381.646 33.87C380.43 33.262 379.024 32.958 377.428 32.958C375.832 32.958 374.426 33.262 373.21 33.87C371.994 34.478 370.968 35.3013 370.132 36.34C369.322 37.3787 368.701 38.5567 368.27 39.874C367.84 41.166 367.624 42.5087 367.624 43.902C367.624 45.3207 367.84 46.6887 368.27 48.006C368.701 49.3233 369.322 50.5013 370.132 51.54C370.968 52.5787 371.994 53.402 373.21 54.01C374.426 54.618 375.832 54.922 377.428 54.922ZM396.169 58V29.88H399.513L414.181 51.274V29.88H417.905V58H414.561L399.893 36.644V58H396.169Z" fill="#1F3C88"/>
<path d="M105.04 58V29.88H114.996C116.997 29.88 118.657 30.2727 119.974 31.058C121.291 31.8433 122.279 32.8567 122.938 34.098C123.597 35.3393 123.926 36.644 123.926 38.012C123.926 39.152 123.698 40.254 123.242 41.318C122.786 42.382 122.102 43.3193 121.19 44.13C120.303 44.9153 119.176 45.4853 117.808 45.84L124.914 58H120.696L113.894 46.182H108.764V58H105.04ZM114.958 33.148H108.764V42.99H114.958C116.123 42.99 117.086 42.7493 117.846 42.268C118.606 41.7867 119.176 41.1787 119.556 40.444C119.936 39.684 120.126 38.8987 120.126 38.088C120.126 37.252 119.936 36.4667 119.556 35.732C119.176 34.972 118.606 34.3513 117.846 33.87C117.086 33.3887 116.123 33.148 114.958 33.148ZM130.423 58V29.88H134.147V42.572L146.307 29.918H151.171L138.023 43.408L151.741 58H146.725L134.147 44.586V58H130.423Z" fill="#E6EDFE"/>
</svg>
